PathFileType  4	(X/Y/Z) C:\Users\antoi\Documents\MyRepositories\mobilecap\ResultsAnalysis
DataRate	CameraRate	NumFrames	NumMarkers	Units	OrigDataRate	OrigDataStartFrame	OrigNumFrames
100.0	100.0	4	55	mm	100.0	453	517
Frame#	Time	r_knee			r_shank_antsup			r_ankle			r_calc			r_5meta			r_toe			L_knee			L_shank_antsup			L_ankle			L_calc			L_5meta			L_toe			r_mknee			r_mankle			L_mknee			L_mankle			r_sh2			r_sh3			r_sh4			L_sh2			L_sh3			r_thigh1			r_thigh2			r_thigh3			r_thigh4			r_thigh5			L_thigh1			L_thigh2			L_thigh3			L_thigh4			r.ASIS			r.PSIS			L.ASIS			L.PSIS			C7			R_Shoulder			L_Shoulder			R_Sternum			L_Sternum			R_humerus			R_elbow_med			R_elbow_lat			R_forearm			R_wrist_radius			R_wrist_ulna			L_humerus			L_elbow_med			L_elbow_lat			L_forearm			L_wrist_radius			L_wrist_ulna			R_HJC			L_HJC			R_HJC_reg			L_HJC_reg			
		X1	Y1	Z1	X2	Y2	Z2	X3	Y3	Z3	X4	Y4	Z4	X5	Y5	Z5	X6	Y6	Z6	X7	Y7	Z7	X8	Y8	Z8	X9	Y9	Z9	X10	Y10	Z10	X11	Y11	Z11	X12	Y12	Z12	X13	Y13	Z13	X14	Y14	Z14	X15	Y15	Z15	X16	Y16	Z16	X17	Y17	Z17	X18	Y18	Z18	X19	Y19	Z19	X20	Y20	Z20	X21	Y21	Z21	X22	Y22	Z22	X23	Y23	Z23	X24	Y24	Z24	X25	Y25	Z25	X26	Y26	Z26	X27	Y27	Z27	X28	Y28	Z28	X29	Y29	Z29	X30	Y30	Z30	X31	Y31	Z31	X32	Y32	Z32	X33	Y33	Z33	X34	Y34	Z34	X35	Y35	Z35	X36	Y36	Z36	X37	Y37	Z37	X38	Y38	Z38	X39	Y39	Z39	X40	Y40	Z40	X41	Y41	Z41	X42	Y42	Z42	X43	Y43	Z43	X44	Y44	Z44	X45	Y45	Z45	X46	Y46	Z46	X47	Y47	Z47	X48	Y48	Z48	X49	Y49	Z49	X50	Y50	Z50	X51	Y51	Z51	X52	Y52	Z52	X53	Y53	Z53	X54	Y54	Z54	X55	Y55	Z55	

453	4.52000000	-218.10377	500.07153	-435.34196	-190.99452	409.52439	-438.25222	-283.74829	93.54955	-433.73343	-343.46276	57.81337	-478.26298	-162.66187	43.52901	-390.08674	-129.48902	70.28689	-446.28604	-218.45424	503.63843	-765.73595	-190.56384	420.63577	-758.96917	-274.88695	97.84868	-772.92550	-345.32522	50.06175	-725.42153	-167.72170	40.99355	-813.62655	-121.14136	64.93784	-756.90800	-232.55851	483.63243	-552.34593	-261.39011	110.90310	-509.78957	-229.24784	490.75289	-646.60118	-255.14883	103.74741	-691.78665	-203.89983	296.73223	-435.32137	-253.43024	416.11506	-395.49195	-271.40638	303.16645	-389.03752	-269.12446	443.75485	-801.82585	-284.37970	321.73747	-810.63417	-144.97251	779.57369	-431.01392	-146.70251	668.35590	-436.57285	-200.40889	642.47098	-404.58730	-255.63999	776.81145	-410.56209	-251.00857	660.98954	-419.68480	-127.02736	748.88147	-766.50661	-125.98461	608.67701	-750.03826	-230.29151	744.62791	-808.03114	-231.93463	612.69631	-780.36263	-109.74275	965.60734	-478.11522	-313.53979	1010.80163	-566.35192	-106.98009	963.75328	-734.26909	-309.96004	1010.53127	-659.40412	-282.51670	1462.68150	-614.34559	-218.73400	1433.15908	-444.88441	-192.68274	1434.52650	-764.36845	-154.91690	1393.29963	-582.57020	-155.35519	1395.77386	-627.75970	-177.78500	1302.96158	-393.87079	-263.92864	1099.97374	-426.07700	-247.05908	1112.00685	-360.79324	-185.27149	1051.57890	-345.98116	-127.19618	892.14791	-381.93937	-153.41996	891.00032	-339.28071	-159.67250	1292.82897	-818.34290	-243.61597	1095.51656	-784.75568	-209.19320	1106.35939	-856.61043	-154.23819	1051.74701	-856.45752	-102.46907	882.63899	-821.41511	-127.89013	883.35721	-867.17493	-199.39251	883.94295	-506.58378	-194.21198	883.22851	-696.07415	-189.22719	892.08637	-517.18598	-182.72766	891.59558	-686.13609	
454	4.53000000	-218.11395	500.08791	-435.34235	-191.00797	409.49945	-438.26952	-283.79403	93.55950	-433.68892	-343.45748	57.73050	-478.30090	-162.68335	43.53754	-390.01977	-129.49771	70.27548	-446.28895	-218.47679	503.61430	-765.73473	-190.59222	420.60553	-758.96977	-274.90511	97.86017	-772.95643	-345.28499	50.06367	-725.44951	-167.72127	40.98105	-813.64237	-121.13688	64.93464	-756.92255	-232.59172	483.62543	-552.33237	-261.40378	110.87525	-509.80151	-229.24983	490.75397	-646.59837	-255.15710	103.74320	-691.79301	-203.90377	296.71613	-435.31048	-253.40909	416.07184	-395.52416	-271.43970	303.19782	-389.05194	-269.14625	443.72728	-801.83645	-284.40644	321.69492	-810.63676	-145.04705	779.51120	-431.03988	-146.74487	668.33515	-436.64566	-200.42249	642.48516	-404.52435	-255.68695	776.79254	-410.58858	-251.04776	660.97241	-419.70942	-127.07558	748.87631	-766.53048	-126.02821	608.62727	-750.02651	-230.33232	744.58544	-808.01164	-231.99865	612.61789	-780.27362	-109.82768	965.62789	-478.11632	-313.59844	1010.81116	-566.31667	-107.04532	963.74246	-734.27474	-310.02933	1010.51111	-659.41950	-282.59667	1462.66375	-614.33879	-218.80382	1433.15945	-444.90803	-192.76349	1434.55270	-764.38142	-154.98991	1393.32072	-582.55388	-155.45483	1395.74203	-627.76678	-177.85709	1302.95619	-393.86109	-263.97728	1099.98219	-425.98725	-247.07659	1112.03452	-360.76733	-185.29681	1051.59275	-345.94446	-127.23587	892.18778	-381.78351	-153.42298	891.01581	-339.23137	-159.73255	1292.85999	-818.37303	-243.67495	1095.52637	-784.79083	-209.23813	1106.35926	-856.61582	-154.33205	1051.76239	-856.44469	-102.55429	882.63782	-821.44623	-127.95954	883.38600	-867.23581	-199.45628	883.95627	-506.56744	-194.28032	883.21767	-696.05784	-189.29603	892.12642	-517.15400	-182.81919	891.58200	-686.10812	
455	4.54000000	-218.12947	500.07672	-435.36134	-191.03051	409.47200	-438.31752	-283.82067	93.62504	-433.61336	-343.45727	57.67223	-478.31751	-162.67110	43.58314	-389.97173	-129.49363	70.30028	-446.29771	-218.50571	503.59656	-765.72864	-190.63053	420.57792	-758.97652	-274.90711	97.83527	-772.94854	-345.30208	50.02577	-725.40424	-167.72942	40.95909	-813.65080	-121.13096	64.92294	-756.93606	-232.60940	483.62606	-552.32053	-261.41322	110.84982	-509.81347	-229.26274	490.76303	-646.59382	-255.16351	103.74852	-691.79627	-203.91768	296.68911	-435.31864	-253.42495	416.08984	-395.50112	-271.46898	303.23204	-389.07796	-269.16730	443.70390	-801.84620	-284.42980	321.66629	-810.61430	-145.10397	779.54908	-431.10926	-146.74861	668.30359	-436.74135	-200.42971	642.47890	-404.55113	-255.76196	776.78439	-410.62257	-251.11841	660.98296	-419.71212	-127.11037	748.85337	-766.55711	-126.05565	608.63268	-750.03826	-230.37558	744.55112	-808.00789	-232.03983	612.57060	-780.22883	-109.89289	965.64197	-478.13941	-313.61519	1010.82374	-566.36363	-107.11153	963.75028	-734.28944	-310.09384	1010.49620	-659.43378	-282.67571	1462.64164	-614.34045	-218.87484	1433.18882	-444.91022	-192.87630	1434.58851	-764.35880	-155.08872	1393.37065	-582.50238	-155.56135	1395.76453	-627.76035	-177.94629	1302.94270	-393.83551	-264.00659	1099.97502	-425.98892	-247.09865	1112.02460	-360.77465	-185.34255	1051.59648	-345.90659	-127.22633	892.13874	-381.92624	-153.44762	891.02120	-339.21392	-159.78504	1292.89005	-818.40379	-243.75198	1095.55443	-784.86511	-209.28491	1106.36035	-856.59737	-154.40547	1051.76431	-856.42877	-102.62277	882.64659	-821.47426	-128.01835	883.40360	-867.28105	-199.50612	883.96863	-506.58503	-194.33105	883.21697	-696.07539	-189.32532	892.18073	-517.11412	-182.93297	891.58613	-686.06580	
456	4.55000000	-218.16149	500.04856	-435.38784	-191.05442	409.46163	-438.35935	-283.81543	93.63468	-433.59873	-343.46013	57.71396	-478.30172	-162.64793	43.63972	-389.92495	-129.49415	70.31351	-446.29999	-218.53090	503.57483	-765.72619	-190.67004	420.59157	-759.02223	-274.90132	97.82126	-772.95494	-345.36295	50.00550	-725.35869	-167.74180	40.92766	-813.64344	-121.13310	64.91748	-756.95412	-232.61105	483.62974	-552.31178	-261.41684	110.82939	-509.81939	-229.27816	490.77332	-646.58327	-255.16223	103.75226	-691.79373	-203.93467	296.67719	-435.35635	-253.46140	416.10525	-395.48005	-271.48235	303.24916	-389.09535	-269.17861	443.68756	-801.85415	-284.44223	321.64416	-810.60699	-145.15345	779.61343	-431.16273	-146.77733	668.30339	-436.74358	-200.49038	642.43723	-404.65523	-255.83473	776.82173	-410.58458	-251.17958	661.00691	-419.64880	-127.14255	748.88373	-766.55618	-126.09372	608.68210	-750.08129	-230.41948	744.55392	-808.07276	-232.06118	612.56552	-780.23711	-109.95577	965.66415	-478.15287	-313.69363	1010.81190	-566.35707	-107.18313	963.77623	-734.30510	-310.15337	1010.47464	-659.44663	-282.76885	1462.64231	-614.34719	-218.97368	1433.23228	-444.88217	-192.98447	1434.62961	-764.31324	-155.17926	1393.43100	-582.40685	-155.65140	1395.84920	-627.69682	-178.04829	1302.94631	-393.83360	-264.04774	1099.98925	-426.00296	-247.13257	1111.99672	-360.80982	-185.40878	1051.58652	-345.85590	-127.23215	892.14834	-381.97447	-153.49076	891.03650	-339.18740	-159.83429	1292.92108	-818.40540	-243.83999	1095.58360	-784.95643	-209.33304	1106.36154	-856.58681	-154.44009	1051.77002	-856.42768	-102.67685	882.65868	-821.52655	-128.05436	883.40948	-867.29783	-199.55095	883.97400	-506.59460	-194.38193	883.22401	-696.08514	-189.39757	892.20170	-517.13568	-182.97237	891.58961	-686.08738	
